#!OML:ASF F:\VICON\USERDATA\INSTALL\rory3\rory3.ASF
:FULLY-SPECIFIED
:DEGREES
2252
root 1.45285 9.76446 -6.17007 -208.294 171.033 -178.397
lowerback 32.4713 0.259824 0.390455
upperback 14.4437 0.612256 0.119848
thorax -1.23261 0.398394 -0.288223
lowerneck -13.2032 -10.3078 -14.6359
upperneck 5.76324 -12.7932 14.4028
head 5.79757 -5.80792 5.62122
rclavicle 8.34896e-015 -1.61016e-014
rhumerus 49.9181 10.4361 -49.6671
rradius 124.843
rwrist -44.2239
rhand 12.9547 23.1433
rfingers 7.12502
rthumb 37.923 -2.67682
lclavicle 8.34896e-015 -1.61016e-014
lhumerus -26.5051 -33.7237 84.6409
lradius 89.8664
lwrist -11.7
lhand -37.1221 7.82331
lfingers 7.12502
lthumb -10.1924 37.5564
rfemur -118.568 1.20772 78.0544
rtibia 112.228
rfoot 8.48665 -15.1037
rtoes 38.8629
lfemur -64.2038 6.72602 -27.5938
ltibia 88.1304
lfoot 6.17697 -15.0979
ltoes -2.1213
2253
root 1.4595 9.76263 -6.16643 -208.227 171.05 -178.38
lowerback 32.3892 0.248923 0.370748
upperback 14.3859 0.590201 0.105716
thorax -1.26499 0.385935 -0.285357
lowerneck -13.1191 -10.2261 -14.6059
upperneck 6.12471 -12.7336 14.3878
head 5.88452 -5.7787 5.62102
rclavicle -2.25621e-014 1.19271e-014
rhumerus 49.9712 10.6116 -49.682
rradius 124.804
rwrist -44.3037
rhand 13.689 23.1298
rfingers 7.12502
rthumb 38.6162 -2.49909
lclavicle -2.25621e-014 1.19271e-014
lhumerus -26.5377 -33.6041 84.675
lradius 89.8064
lwrist -11.8994
lhand -36.9333 8.18023
lfingers 7.12502
lthumb -10.0103 37.9222
rfemur -118.591 1.31475 77.9875
rtibia 112.215
rfoot 8.37638 -15.3536
rtoes 39.1548
lfemur -64.2865 6.73099 -27.6441
ltibia 88.1742
lfoot 6.10139 -15.0351
ltoes -2.02505
2254
root 1.46506 9.75909 -6.16244 -208.109 171.059 -178.472
lowerback 32.2978 0.220779 0.446743
upperback 14.3326 0.575202 0.111492
thorax -1.28739 0.381087 -0.317545
lowerneck -13.2423 -10.1514 -14.6184
upperneck 6.4895 -12.6676 14.5194
head 6.02051 -5.72991 5.66884
rclavicle -5.36719e-015 -7.15625e-015
rhumerus 49.9882 10.7038 -49.6529
rradius 124.778
rwrist -44.3611
rhand 13.9799 22.8143
rfingers 7.12502
rthumb 38.8906 -2.73699
lclavicle -5.36719e-015 -7.15625e-015
lhumerus -26.5606 -33.5286 84.7254
lradius 89.783
lwrist -11.936
lhand -36.8796 8.19928
lfingers 7.12502
lthumb -9.95853 37.9437
rfemur -118.658 1.47006 77.9951
rtibia 112.19
rfoot 8.23218 -15.5557
rtoes 39.3805
lfemur -64.4851 6.65043 -27.5863
ltibia 88.2448
lfoot 6.11871 -15.0391
ltoes -1.95438
2255
root 1.47016 9.75651 -6.15925 -208.154 171.083 -178.583
lowerback 32.2511 0.204403 0.556276
upperback 14.3626 0.586453 0.126069
thorax -1.23154 0.391909 -0.367276
lowerneck -13.349 -10.0521 -14.808
upperneck 6.84334 -12.5758 14.9328
head 6.18046 -5.65693 5.84233
rclavicle -1.41137e-014 -1.39149e-015
rhumerus 49.9784 10.7091 -49.5972
rradius 124.708
rwrist -44.4355
rhand 14.0207 22.7357
rfingers 7.12502
rthumb 38.9291 -2.80464
lclavicle -1.41137e-014 -1.39149e-015
lhumerus -26.5581 -33.5648 84.7968
lradius 89.7643
lwrist -11.729
lhand -36.9687 7.99259
lfingers 7.12502
lthumb -10.0445 37.7329
rfemur -118.636 1.46002 78.0618
rtibia 112.187
rfoot 8.21203 -15.7207
rtoes 39.8149
lfemur -64.4959 6.62991 -27.4909
ltibia 88.3121
lfoot 6.09063 -15.0365
ltoes -1.95892
2256
root 1.47414 9.75187 -6.15567 -208.222 170.998 -178.624
lowerback 32.3416 0.174831 0.545451
upperback 14.3442 0.548276 0.135926
thorax -1.29199 0.371932 -0.33885
lowerneck -13.3476 -9.96171 -14.8591
upperneck 7.08531 -12.4844 15.0472
head 6.25452 -5.60437 5.90105
rclavicle -1.63997e-014 1.96797e-014
rhumerus 50.0105 10.792 -49.5574
rradius 124.569
rwrist -44.532
rhand 14.3556 23.1528
rfingers 7.12502
rthumb 39.2447 -2.29669
lclavicle -1.63997e-014 1.96797e-014
lhumerus -26.6738 -33.5022 84.8767
lradius 89.7621
lwrist -11.6504
lhand -37.0339 7.79575
lfingers 7.12502
lthumb -10.1074 37.533
rfemur -118.688 1.39919 78.012
rtibia 112.211
rfoot 8.0631 -15.8219
rtoes 40.1372
lfemur -64.4527 6.50944 -27.4977
ltibia 88.3614
lfoot 6.09165 -14.9897
ltoes -1.86054
2257
root 1.47763 9.74952 -6.15468 -208.225 170.957 -178.625
lowerback 32.389 0.171228 0.500624
upperback 14.3235 0.532367 0.151628
thorax -1.33704 0.360926 -0.291093
lowerneck -13.3542 -9.92873 -14.76
upperneck 7.23616 -12.4558 14.9238
head 6.28248 -5.59314 5.84836
rclavicle 1.11319e-014 3.77691e-015
rhumerus 50.0361 10.8256 -49.5339
rradius 124.465
rwrist -44.6906
rhand 14.8379 23.6303
rfingers 7.12502
rthumb 39.699 -1.68583
lclavicle 1.11319e-014 3.77691e-015
lhumerus -26.7294 -33.5034 84.956
lradius 89.7456
lwrist -11.5599
lhand -37.2075 7.91322
lfingers 7.12502
lthumb -10.2748 37.6423
rfemur -118.703 1.40341 77.9702
rtibia 112.205
rfoot 7.9361 -15.9607
rtoes 40.502
lfemur -64.4406 6.46109 -27.5031
ltibia 88.3739
lfoot 6.18037 -14.9372
ltoes -1.33676
2258
root 1.48471 9.74734 -6.1521 -208.207 170.93 -178.651
lowerback 32.3217 0.135244 0.497774
upperback 14.3386 0.486083 0.160824
thorax -1.29133 0.337294 -0.263945
lowerneck -13.4466 -9.88315 -14.6875
upperneck 7.45985 -12.401 14.8001
head 6.34549 -5.56549 5.8005
rclavicle -9.93923e-016 -2.0276e-014
rhumerus 50.1302 10.8712 -49.5152
rradius 124.372
rwrist -44.7705
rhand 15.1255 24.0067
rfingers 7.12502
rthumb 39.9697 -1.22843
lclavicle -9.93923e-016 -2.0276e-014
lhumerus -26.6667 -33.4508 84.994
lradius 89.7045
lwrist -11.4823
lhand -37.2702 8.23288
lfingers 7.12502
lthumb -10.3353 37.9589
rfemur -118.744 1.42661 77.9326
rtibia 112.207
rfoot 7.76211 -16.1207
rtoes 40.9413
lfemur -64.4768 6.40485 -27.5225
ltibia 88.401
lfoot 6.1694 -14.9094
ltoes -1.35281
2259
root 1.48885 9.748 -6.1503 -208.197 170.951 -178.599
lowerback 32.2395 0.138976 0.415509
upperback 14.3957 0.466695 0.166032
thorax -1.19101 0.323556 -0.203838
lowerneck -13.533 -9.83741 -14.6274
upperneck 7.53844 -12.3255 14.6543
head 6.35807 -5.53184 5.75066
rclavicle 2.25621e-014 -5.76476e-015
rhumerus 50.3018 10.9724 -49.4444
rradius 124.342
rwrist -44.7645
rhand 15.2321 23.852
rfingers 7.12502
rthumb 40.0701 -1.35285
lclavicle 2.25621e-014 -5.76476e-015
lhumerus -26.5951 -33.2678 85.0633
lradius 89.7013
lwrist -11.4933
lhand -37.0798 8.45833
lfingers 7.12502
lthumb -10.1516 38.1934
rfemur -118.7 1.47458 77.8431
rtibia 112.206
rfoot 7.61488 -16.2306
rtoes 41.4251
lfemur -64.4527 6.43959 -27.6123
ltibia 88.3913
lfoot 6.06035 -14.9111
ltoes -1.76006
2260
root 1.4917 9.75133 -6.15147 -208.233 170.992 -178.541
lowerback 32.2911 0.173874 0.292319
upperback 14.4057 0.475273 0.166544
thorax -1.20235 0.321311 -0.135441
lowerneck -13.6436 -9.79224 -14.5202
upperneck 7.65227 -12.2666 14.5521
head 6.38899 -5.50058 5.70462
rclavicle -1.23246e-014 -6.55989e-015
rhumerus 50.3848 11.0744 -49.3807
rradius 124.342
rwrist -44.887
rhand 15.1847 23.2019
rfingers 7.12502
rthumb 40.0255 -2.01648
lclavicle -1.23246e-014 -6.55989e-015
lhumerus -26.6148 -33.1474 85.0802
lradius 89.6691
lwrist -11.5314
lhand -37.0784 8.28213
lfingers 7.12502
lthumb -10.1502 38.0173
rfemur -118.6 1.45301 77.7777
rtibia 112.195
rfoot 7.51879 -16.3357
rtoes 41.7567
lfemur -64.3589 6.49523 -27.6336
ltibia 88.3506
lfoot 6.19286 -14.8094
ltoes -0.986997
2261
root 1.49657 9.75114 -6.1503 -208.25 171.077 -178.648
lowerback 32.2687 0.171282 0.355505
upperback 14.4285 0.49203 0.227468
thorax -1.16642 0.329895 -0.109166
lowerneck -13.6989 -9.75834 -14.4578
upperneck 7.74815 -12.2219 14.4628
head 6.411 -5.47933 5.66972
rclavicle 3.56818e-014 3.37934e-015
rhumerus 50.5069 11.0828 -49.2979
rradius 124.221
rwrist -44.9805
rhand 15.148 22.7766
rfingers 7.12502
rthumb 39.991 -2.45214
lclavicle 3.56818e-014 3.37934e-015
lhumerus -26.5305 -33.026 85.1351
lradius 89.5912
lwrist -11.6895
lhand -37.0199 8.04226
lfingers 7.12502
lthumb -10.0938 37.7802
rfemur -118.508 1.47743 77.8654
rtibia 112.153
rfoot 7.34184 -16.3988
rtoes 42.0634
lfemur -64.392 6.54012 -27.5146
ltibia 88.3735
lfoot 6.18642 -14.8223
ltoes -0.957173
2262
root 1.49939 9.75217 -6.15143 -208.317 171.101 -178.769
lowerback 32.3714 0.151472 0.38495
upperback 14.4264 0.479251 0.295165
thorax -1.21301 0.321699 -0.0475189
lowerneck -13.6075 -9.69639 -14.4431
upperneck 7.77339 -12.1517 14.4446
head 6.39097 -5.44986 5.67457
rclavicle 2.98177e-016 2.52457e-014
rhumerus 50.5651 11.1158 -49.2373
rradius 124.177
rwrist -45.1286
rhand 15.1157 22.5784
rfingers 7.12502
rthumb 39.9606 -2.65956
lclavicle 2.98177e-016 2.52457e-014
lhumerus -26.4885 -32.8782 85.1744
lradius 89.5363
lwrist -11.8517
lhand -37.0019 7.8922
lfingers 7.12502
lthumb -10.0764 37.6309
rfemur -118.431 1.41088 77.9471
rtibia 112.117
rfoot 7.20596 -16.4698
rtoes 42.4479
lfemur -64.3482 6.54196 -27.4022
ltibia 88.3818
lfoot 6.18233 -14.8455
ltoes -0.962583
2263
root 1.50216 9.75311 -6.15168 -208.349 171.101 -178.872
lowerback 32.4378 0.122734 0.463518
upperback 14.4048 0.466701 0.309294
thorax -1.26576 0.318482 -0.0734987
lowerneck -13.523 -9.61813 -14.4183
upperneck 7.77709 -12.0693 14.5064
head 6.36904 -5.40907 5.70572
rclavicle -5.86415e-015 -1.61016e-014
rhumerus 50.5619 11.1343 -49.2445
rradius 124.12
rwrist -45.0911
rhand 15.1655 23.6126
rfingers 7.12502
rthumb 40.0074 -1.61123
lclavicle -5.86415e-015 -1.61016e-014
lhumerus -26.4484 -32.8495 85.1583
lradius 89.4718
lwrist -11.9883
lhand -36.7706 7.76809
lfingers 7.12502
lthumb -9.8533 37.5175
rfemur -118.408 1.3711 77.9997
rtibia 112.098
rfoot 7.08508 -16.5013
rtoes 42.7385
lfemur -64.3233 6.4995 -27.3136
ltibia 88.4021
lfoot 6.15577 -14.843
ltoes -0.978536
